<svg xmlns="http://www.w3.org/2000/svg" width="256" height="256" viewBox="0 0 32 32" shape-rendering="crispEdges" role="img" aria-label="Grimoire"><rect width="32" height="32" fill="#07060f"/><rect x="4" y="5" width="4" height="1" fill="#2a1d50"/><rect x="9" y="5" width="13" height="1" fill="#5c43a8"/><rect x="4" y="6" width="1" height="1" fill="#2a1d50"/><rect x="5" y="6" width="1" height="1" fill="#5c43a8"/><rect x="6" y="6" width="2" height="1" fill="#2a1d50"/><rect x="9" y="6" width="12" height="1" fill="#3f2c78"/><rect x="21" y="6" width="1" height="1" fill="#2a1d50"/><rect x="23" y="6" width="4" height="1" fill="#ede0c8"/><rect x="27" y="6" width="1" height="1" fill="#bfae8e"/><rect x="4" y="7" width="1" height="1" fill="#2a1d50"/><rect x="5" y="7" width="1" height="1" fill="#5c43a8"/><rect x="6" y="7" width="2" height="1" fill="#2a1d50"/><rect x="9" y="7" width="12" height="1" fill="#3f2c78"/><rect x="21" y="7" width="1" height="1" fill="#2a1d50"/><rect x="23" y="7" width="4" height="1" fill="#ede0c8"/><rect x="27" y="7" width="1" height="1" fill="#bfae8e"/><rect x="4" y="8" width="1" height="1" fill="#2a1d50"/><rect x="5" y="8" width="1" height="1" fill="#5c43a8"/><rect x="6" y="8" width="2" height="1" fill="#2a1d50"/><rect x="9" y="8" width="1" height="1" fill="#3f2c78"/><rect x="10" y="8" width="11" height="1" fill="#a8761a"/><rect x="21" y="8" width="1" height="1" fill="#2a1d50"/><rect x="23" y="8" width="5" height="1" fill="#bfae8e"/><rect x="4" y="9" width="1" height="1" fill="#2a1d50"/><rect x="5" y="9" width="1" height="1" fill="#5c43a8"/><rect x="6" y="9" width="2" height="1" fill="#2a1d50"/><rect x="9" y="9" width="1" height="1" fill="#3f2c78"/><rect x="10" y="9" width="1" height="1" fill="#a8761a"/><rect x="11" y="9" width="9" height="1" fill="#f0b429"/><rect x="20" y="9" width="1" height="1" fill="#a8761a"/><rect x="21" y="9" width="1" height="1" fill="#2a1d50"/><rect x="23" y="9" width="4" height="1" fill="#ede0c8"/><rect x="27" y="9" width="1" height="1" fill="#bfae8e"/><rect x="4" y="10" width="1" height="1" fill="#2a1d50"/><rect x="5" y="10" width="1" height="1" fill="#5c43a8"/><rect x="6" y="10" width="2" height="1" fill="#2a1d50"/><rect x="9" y="10" width="1" height="1" fill="#3f2c78"/><rect x="10" y="10" width="1" height="1" fill="#a8761a"/><rect x="11" y="10" width="1" height="1" fill="#f0b429"/><rect x="12" y="10" width="7" height="1" fill="#3f2c78"/><rect x="19" y="10" width="1" height="1" fill="#f0b429"/><rect x="20" y="10" width="1" height="1" fill="#a8761a"/><rect x="21" y="10" width="1" height="1" fill="#2a1d50"/><rect x="23" y="10" width="4" height="1" fill="#ede0c8"/><rect x="27" y="10" width="1" height="1" fill="#bfae8e"/><rect x="4" y="11" width="1" height="1" fill="#2a1d50"/><rect x="5" y="11" width="1" height="1" fill="#5c43a8"/><rect x="6" y="11" width="2" height="1" fill="#2a1d50"/><rect x="9" y="11" width="1" height="1" fill="#3f2c78"/><rect x="10" y="11" width="1" height="1" fill="#a8761a"/><rect x="11" y="11" width="1" height="1" fill="#f0b429"/><rect x="12" y="11" width="7" height="1" fill="#3f2c78"/><rect x="19" y="11" width="1" height="1" fill="#f0b429"/><rect x="20" y="11" width="1" height="1" fill="#a8761a"/><rect x="21" y="11" width="4" height="1" fill="#f0b429"/><rect x="26" y="11" width="2" height="1" fill="#bfae8e"/><rect x="4" y="12" width="1" height="1" fill="#2a1d50"/><rect x="5" y="12" width="1" height="1" fill="#5c43a8"/><rect x="6" y="12" width="2" height="1" fill="#2a1d50"/><rect x="9" y="12" width="1" height="1" fill="#3f2c78"/><rect x="10" y="12" width="1" height="1" fill="#a8761a"/><rect x="11" y="12" width="1" height="1" fill="#f0b429"/><rect x="12" y="12" width="3" height="1" fill="#3f2c78"/><rect x="15" y="12" width="1" height="1" fill="#8b6ef0"/><rect x="16" y="12" width="3" height="1" fill="#3f2c78"/><rect x="19" y="12" width="1" height="1" fill="#f0b429"/><rect x="20" y="12" width="1" height="1" fill="#a8761a"/><rect x="21" y="12" width="5" height="1" fill="#f0b429"/><rect x="26" y="12" width="1" height="1" fill="#ede0c8"/><rect x="27" y="12" width="1" height="1" fill="#bfae8e"/><rect x="4" y="13" width="1" height="1" fill="#2a1d50"/><rect x="5" y="13" width="1" height="1" fill="#5c43a8"/><rect x="6" y="13" width="2" height="1" fill="#2a1d50"/><rect x="9" y="13" width="1" height="1" fill="#3f2c78"/><rect x="10" y="13" width="1" height="1" fill="#a8761a"/><rect x="11" y="13" width="1" height="1" fill="#f0b429"/><rect x="12" y="13" width="2" height="1" fill="#3f2c78"/><rect x="14" y="13" width="1" height="1" fill="#8b6ef0"/><rect x="15" y="13" width="1" height="1" fill="#ff9900"/><rect x="16" y="13" width="1" height="1" fill="#8b6ef0"/><rect x="17" y="13" width="2" height="1" fill="#3f2c78"/><rect x="19" y="13" width="1" height="1" fill="#f0b429"/><rect x="20" y="13" width="5" height="1" fill="#a8761a"/><rect x="26" y="13" width="1" height="1" fill="#ede0c8"/><rect x="27" y="13" width="1" height="1" fill="#bfae8e"/><rect x="4" y="14" width="1" height="1" fill="#2a1d50"/><rect x="5" y="14" width="1" height="1" fill="#5c43a8"/><rect x="6" y="14" width="2" height="1" fill="#2a1d50"/><rect x="9" y="14" width="1" height="1" fill="#3f2c78"/><rect x="10" y="14" width="1" height="1" fill="#a8761a"/><rect x="11" y="14" width="1" height="1" fill="#f0b429"/><rect x="12" y="14" width="1" height="1" fill="#3f2c78"/><rect x="13" y="14" width="2" height="1" fill="#8b6ef0"/><rect x="15" y="14" width="1" height="1" fill="#3f2c78"/><rect x="16" y="14" width="2" height="1" fill="#8b6ef0"/><rect x="18" y="14" width="1" height="1" fill="#3f2c78"/><rect x="19" y="14" width="1" height="1" fill="#f0b429"/><rect x="20" y="14" width="1" height="1" fill="#a8761a"/><rect x="21" y="14" width="1" height="1" fill="#2a1d50"/><rect x="23" y="14" width="5" height="1" fill="#bfae8e"/><rect x="4" y="15" width="1" height="1" fill="#2a1d50"/><rect x="5" y="15" width="1" height="1" fill="#5c43a8"/><rect x="6" y="15" width="2" height="1" fill="#2a1d50"/><rect x="9" y="15" width="1" height="1" fill="#3f2c78"/><rect x="10" y="15" width="1" height="1" fill="#a8761a"/><rect x="11" y="15" width="1" height="1" fill="#f0b429"/><rect x="12" y="15" width="1" height="1" fill="#3f2c78"/><rect x="13" y="15" width="1" height="1" fill="#8b6ef0"/><rect x="14" y="15" width="1" height="1" fill="#3f2c78"/><rect x="15" y="15" width="1" height="1" fill="#fdfcff"/><rect x="16" y="15" width="1" height="1" fill="#3f2c78"/><rect x="17" y="15" width="1" height="1" fill="#8b6ef0"/><rect x="18" y="15" width="1" height="1" fill="#3f2c78"/><rect x="19" y="15" width="1" height="1" fill="#f0b429"/><rect x="20" y="15" width="1" height="1" fill="#a8761a"/><rect x="21" y="15" width="1" height="1" fill="#2a1d50"/><rect x="23" y="15" width="4" height="1" fill="#ede0c8"/><rect x="27" y="15" width="1" height="1" fill="#bfae8e"/><rect x="4" y="16" width="1" height="1" fill="#2a1d50"/><rect x="5" y="16" width="1" height="1" fill="#5c43a8"/><rect x="6" y="16" width="2" height="1" fill="#2a1d50"/><rect x="9" y="16" width="1" height="1" fill="#3f2c78"/><rect x="10" y="16" width="1" height="1" fill="#a8761a"/><rect x="11" y="16" width="1" height="1" fill="#f0b429"/><rect x="12" y="16" width="1" height="1" fill="#3f2c78"/><rect x="13" y="16" width="2" height="1" fill="#8b6ef0"/><rect x="15" y="16" width="1" height="1" fill="#3f2c78"/><rect x="16" y="16" width="2" height="1" fill="#8b6ef0"/><rect x="18" y="16" width="1" height="1" fill="#3f2c78"/><rect x="19" y="16" width="1" height="1" fill="#f0b429"/><rect x="20" y="16" width="1" height="1" fill="#a8761a"/><rect x="21" y="16" width="1" height="1" fill="#2a1d50"/><rect x="23" y="16" width="4" height="1" fill="#ede0c8"/><rect x="27" y="16" width="1" height="1" fill="#bfae8e"/><rect x="4" y="17" width="1" height="1" fill="#2a1d50"/><rect x="5" y="17" width="1" height="1" fill="#5c43a8"/><rect x="6" y="17" width="2" height="1" fill="#2a1d50"/><rect x="9" y="17" width="1" height="1" fill="#3f2c78"/><rect x="10" y="17" width="1" height="1" fill="#a8761a"/><rect x="11" y="17" width="1" height="1" fill="#f0b429"/><rect x="12" y="17" width="2" height="1" fill="#3f2c78"/><rect x="14" y="17" width="1" height="1" fill="#8b6ef0"/><rect x="15" y="17" width="1" height="1" fill="#ff9900"/><rect x="16" y="17" width="1" height="1" fill="#8b6ef0"/><rect x="17" y="17" width="2" height="1" fill="#3f2c78"/><rect x="19" y="17" width="1" height="1" fill="#f0b429"/><rect x="20" y="17" width="1" height="1" fill="#a8761a"/><rect x="21" y="17" width="1" height="1" fill="#2a1d50"/><rect x="23" y="17" width="5" height="1" fill="#bfae8e"/><rect x="4" y="18" width="1" height="1" fill="#2a1d50"/><rect x="5" y="18" width="1" height="1" fill="#5c43a8"/><rect x="6" y="18" width="2" height="1" fill="#2a1d50"/><rect x="9" y="18" width="1" height="1" fill="#3f2c78"/><rect x="10" y="18" width="1" height="1" fill="#a8761a"/><rect x="11" y="18" width="1" height="1" fill="#f0b429"/><rect x="12" y="18" width="3" height="1" fill="#3f2c78"/><rect x="15" y="18" width="1" height="1" fill="#8b6ef0"/><rect x="16" y="18" width="3" height="1" fill="#3f2c78"/><rect x="19" y="18" width="1" height="1" fill="#f0b429"/><rect x="20" y="18" width="1" height="1" fill="#a8761a"/><rect x="21" y="18" width="1" height="1" fill="#2a1d50"/><rect x="23" y="18" width="4" height="1" fill="#ede0c8"/><rect x="27" y="18" width="1" height="1" fill="#bfae8e"/><rect x="4" y="19" width="1" height="1" fill="#2a1d50"/><rect x="5" y="19" width="1" height="1" fill="#5c43a8"/><rect x="6" y="19" width="2" height="1" fill="#2a1d50"/><rect x="9" y="19" width="1" height="1" fill="#3f2c78"/><rect x="10" y="19" width="1" height="1" fill="#a8761a"/><rect x="11" y="19" width="1" height="1" fill="#f0b429"/><rect x="12" y="19" width="7" height="1" fill="#3f2c78"/><rect x="19" y="19" width="1" height="1" fill="#f0b429"/><rect x="20" y="19" width="1" height="1" fill="#a8761a"/><rect x="21" y="19" width="4" height="1" fill="#f0b429"/><rect x="26" y="19" width="1" height="1" fill="#ede0c8"/><rect x="27" y="19" width="1" height="1" fill="#bfae8e"/><rect x="4" y="20" width="1" height="1" fill="#2a1d50"/><rect x="5" y="20" width="1" height="1" fill="#5c43a8"/><rect x="6" y="20" width="2" height="1" fill="#2a1d50"/><rect x="9" y="20" width="1" height="1" fill="#3f2c78"/><rect x="10" y="20" width="1" height="1" fill="#a8761a"/><rect x="11" y="20" width="1" height="1" fill="#f0b429"/><rect x="12" y="20" width="7" height="1" fill="#3f2c78"/><rect x="19" y="20" width="1" height="1" fill="#f0b429"/><rect x="20" y="20" width="1" height="1" fill="#a8761a"/><rect x="21" y="20" width="5" height="1" fill="#f0b429"/><rect x="26" y="20" width="2" height="1" fill="#bfae8e"/><rect x="4" y="21" width="1" height="1" fill="#2a1d50"/><rect x="5" y="21" width="1" height="1" fill="#5c43a8"/><rect x="6" y="21" width="2" height="1" fill="#2a1d50"/><rect x="9" y="21" width="1" height="1" fill="#3f2c78"/><rect x="10" y="21" width="1" height="1" fill="#a8761a"/><rect x="11" y="21" width="1" height="1" fill="#f0b429"/><rect x="12" y="21" width="7" height="1" fill="#3f2c78"/><rect x="19" y="21" width="1" height="1" fill="#f0b429"/><rect x="20" y="21" width="5" height="1" fill="#a8761a"/><rect x="26" y="21" width="1" height="1" fill="#ede0c8"/><rect x="27" y="21" width="1" height="1" fill="#bfae8e"/><rect x="4" y="22" width="1" height="1" fill="#2a1d50"/><rect x="5" y="22" width="1" height="1" fill="#5c43a8"/><rect x="6" y="22" width="2" height="1" fill="#2a1d50"/><rect x="9" y="22" width="1" height="1" fill="#3f2c78"/><rect x="10" y="22" width="1" height="1" fill="#a8761a"/><rect x="11" y="22" width="9" height="1" fill="#f0b429"/><rect x="20" y="22" width="1" height="1" fill="#a8761a"/><rect x="21" y="22" width="1" height="1" fill="#2a1d50"/><rect x="23" y="22" width="4" height="1" fill="#ede0c8"/><rect x="27" y="22" width="1" height="1" fill="#bfae8e"/><rect x="4" y="23" width="1" height="1" fill="#2a1d50"/><rect x="5" y="23" width="1" height="1" fill="#5c43a8"/><rect x="6" y="23" width="2" height="1" fill="#2a1d50"/><rect x="9" y="23" width="1" height="1" fill="#3f2c78"/><rect x="10" y="23" width="11" height="1" fill="#a8761a"/><rect x="21" y="23" width="1" height="1" fill="#2a1d50"/><rect x="23" y="23" width="5" height="1" fill="#bfae8e"/><rect x="4" y="24" width="1" height="1" fill="#2a1d50"/><rect x="5" y="24" width="1" height="1" fill="#5c43a8"/><rect x="6" y="24" width="2" height="1" fill="#2a1d50"/><rect x="9" y="24" width="12" height="1" fill="#3f2c78"/><rect x="21" y="24" width="1" height="1" fill="#2a1d50"/><rect x="23" y="24" width="4" height="1" fill="#ede0c8"/><rect x="27" y="24" width="1" height="1" fill="#bfae8e"/><rect x="4" y="25" width="1" height="1" fill="#2a1d50"/><rect x="5" y="25" width="1" height="1" fill="#5c43a8"/><rect x="6" y="25" width="2" height="1" fill="#2a1d50"/><rect x="9" y="25" width="12" height="1" fill="#3f2c78"/><rect x="21" y="25" width="1" height="1" fill="#2a1d50"/><rect x="23" y="25" width="4" height="1" fill="#ede0c8"/><rect x="27" y="25" width="1" height="1" fill="#bfae8e"/><rect x="4" y="26" width="4" height="1" fill="#2a1d50"/><rect x="9" y="26" width="13" height="1" fill="#2a1d50"/><rect x="23" y="26" width="5" height="1" fill="#bfae8e"/></svg>